<svg height="512" viewBox="0 0 512 512" width="512" xmlns="http://www.w3.org/2000/svg" xmlns:xlink="http://www.w3.org/1999/xlink"><linearGradient id="New_Gradient_Swatch_2" gradientUnits="userSpaceOnUse" x1="387.672" x2="400.766" y1="16.146" y2="382.758"><stop offset="0" stop-color="#fc5c7d"/><stop offset=".129" stop-color="#f35e85"/><stop offset=".343" stop-color="#d9659b"/><stop offset=".616" stop-color="#b070bf"/><stop offset=".934" stop-color="#777ff0"/><stop offset="1" stop-color="#6a82fb"/></linearGradient><linearGradient id="New_Gradient_Swatch_2-2" x1="364.668" x2="377.761" xlink:href="#New_Gradient_Swatch_2" y1="16.968" y2="383.579"/><linearGradient id="New_Gradient_Swatch_2-3" x1="284.708" x2="297.801" xlink:href="#New_Gradient_Swatch_2" y1="19.823" y2="386.435"/><linearGradient id="New_Gradient_Swatch_2-4" x1="285.564" x2="298.657" xlink:href="#New_Gradient_Swatch_2" y1="19.793" y2="386.404"/><linearGradient id="New_Gradient_Swatch_2-5" x1="283.852" x2="296.945" xlink:href="#New_Gradient_Swatch_2" y1="19.854" y2="386.466"/><linearGradient id="New_Gradient_Swatch_2-6" x1="269.87" x2="282.963" xlink:href="#New_Gradient_Swatch_2" y1="20.353" y2="386.965"/><linearGradient id="New_Gradient_Swatch_2-7" x1="209.032" x2="222.126" xlink:href="#New_Gradient_Swatch_2" y1="22.526" y2="389.138"/><linearGradient id="New_Gradient_Swatch_2-8" x1="73.549" x2="86.642" xlink:href="#New_Gradient_Swatch_2" y1="27.365" y2="393.976"/><linearGradient id="New_Gradient_Swatch_2-9" x1="208.091" x2="221.185" xlink:href="#New_Gradient_Swatch_2" y1="22.56" y2="389.171"/><g id="GD001"><path d="m384 140.232c0 1.061-.039 2.133-.115 3.187l15.957 1.162c.105-1.439.158-2.9.158-4.349v-12.232h-16z" fill="url(#New_Gradient_Swatch_2)"/><path d="m384 83.769v28.231h16v-28.231a60.03 60.03 0 0 0 -30.862-52.45l-29.253-16.252-7.77 13.987 29.253 16.252a44.021 44.021 0 0 1 22.632 38.463z" fill="url(#New_Gradient_Swatch_2-2)"/><path d="m222.4 164.708 17.6 9.777v153.515a8 8 0 0 0 3.884 6.86l40 24a8 8 0 0 0 8.232 0l40-24a8 8 0 0 0 3.884-6.86v-24a8 8 0 0 0 -2.343-5.657l-10.344-10.343 10.344-10.343a8 8 0 0 0 0-11.314l-10.344-10.343 10.344-10.343a8 8 0 0 0 0-11.314l-10.344-10.343 10.344-10.343a8 8 0 0 0 2.343-5.657v-33.516l17.6-9.776a28.014 28.014 0 0 0 14.4-24.476v-56.463a28.015 28.015 0 0 0 -14.4-24.477l-52-28.892a27.832 27.832 0 0 0 -27.2 0l-52 28.889a28.015 28.015 0 0 0 -14.4 24.48v56.463a28.014 28.014 0 0 0 14.4 24.476zm97.6 39.979-13.657 13.656a8 8 0 0 0 0 11.314l10.344 10.343-10.344 10.343a8 8 0 0 0 0 11.314l10.344 10.343-10.344 10.343a8 8 0 0 0 0 11.314l13.657 13.656v16.158l-32 19.2-32-19.2v-140.1l16 8.889v87.74h16v-82.854a27.958 27.958 0 0 0 13.6-3.549l18.4-10.224zm-96-120.918a12.009 12.009 0 0 1 6.172-10.491l52-28.888a11.924 11.924 0 0 1 11.655 0l52 28.888a12.009 12.009 0 0 1 6.173 10.491v56.463a12.008 12.008 0 0 1 -6.172 10.49l-52 28.888a11.924 11.924 0 0 1 -11.655 0l-52-28.888a12.008 12.008 0 0 1 -6.173-10.49z" fill="url(#New_Gradient_Swatch_2-3)"/><path d="m288 112a24 24 0 1 0 -24-24 24.028 24.028 0 0 0 24 24zm0-32a8 8 0 1 1 -8 8 8.009 8.009 0 0 1 8-8z" fill="url(#New_Gradient_Swatch_2-4)"/><path d="m264 128h48v16h-48z" fill="url(#New_Gradient_Swatch_2-5)"/><path d="m272 296h16v16h-16z" fill="url(#New_Gradient_Swatch_2-6)"/><path d="m429.925 401.221a29.115 29.115 0 0 0 -15.912-16.341 28.645 28.645 0 0 0 -22.439.038l-51.721 21.961a28.013 28.013 0 0 0 -27.853-30.879h-62.056a40.647 40.647 0 0 1 -18.082-4.269 187.848 187.848 0 0 0 -83.584-19.731h-20.278a8 8 0 0 0 -8-8h-104v16h96v96h-96v16h104a8 8 0 0 0 8-8v-3.05l59.728 24.8a138.434 138.434 0 0 0 101.806 1.125l123.582-47.123a29.1 29.1 0 0 0 16.339-15.571 29.61 29.61 0 0 0 .47-22.96zm-15.107 16.5a13.214 13.214 0 0 1 -7.4 7.086l-123.585 47.122a122.436 122.436 0 0 1 -90.023-.975l-65.81-27.33v-75.624h20.278a171.761 171.761 0 0 1 76.428 18.042 56.734 56.734 0 0 0 25.238 5.958h62.056a11.993 11.993 0 0 1 .473 23.976c-.322.009-.643.024-.966.024h-95.507v16h95.507c.165 0 .328-.011.493-.012v.012c.558 0 1.111-.021 1.661-.053a49.43 49.43 0 0 0 17.283-3.9l66.877-28.4a12.766 12.766 0 0 1 9.995-.015 13.238 13.238 0 0 1 7.22 7.446 13.725 13.725 0 0 1 -.218 10.642z" fill="url(#New_Gradient_Swatch_2-7)"/><path d="m80 424h16v16h-16z" fill="url(#New_Gradient_Swatch_2-8)"/><path d="m208 192h16v104h-16z" fill="url(#New_Gradient_Swatch_2-9)"/></g></svg>